<?xml version="1.0" standalone="no"?>
<!DOCTYPE svg PUBLIC "-//W3C//DTD SVG 20010904//EN"
 "http://www.w3.org/TR/2001/REC-SVG-20010904/DTD/svg10.dtd">
<svg version="1.0" xmlns="http://www.w3.org/2000/svg"
 width="512.000000pt" height="512.000000pt" viewBox="0 0 512.000000 512.000000"
 preserveAspectRatio="xMidYMid meet">
<metadata>
Created by potrace 1.14, written by Peter Selinger 2001-2017
</metadata>
<g transform="translate(0.000000,512.000000) scale(0.100000,-0.100000)"
fill="#000000" stroke="none">
<path d="M25 5095 l-25 -24 0 -2511 0 -2511 25 -24 24 -25 2511 0 2511 0 24
25 25 24 0 2031 0 2031 -25 24 c-13 14 -31 25 -40 25 -13 0 -15 30 -15 240 0
210 2 240 15 240 9 0 27 11 40 25 25 24 25 26 25 215 0 189 0 191 -25 215
l-24 25 -631 0 -631 0 -24 -25 c-25 -24 -25 -26 -25 -215 0 -189 0 -191 25
-215 l24 -25 536 0 535 0 0 -240 0 -240 -440 0 -440 0 0 175 c0 173 0 176 -25
200 -15 16 -36 25 -55 25 -19 0 -40 -9 -55 -25 -25 -24 -25 -27 -25 -200 l0
-175 -120 0 -120 0 0 455 0 456 -25 24 -24 25 -391 0 -391 0 -24 -25 -25 -24
0 -456 0 -455 -40 0 -40 0 0 455 0 456 -25 24 -24 25 -1271 0 -1271 0 -24 -25z
m2455 -535 l0 -400 -40 0 -40 0 0 295 0 296 -25 24 -24 25 -511 0 -511 0 -24
-25 -25 -24 0 -296 0 -295 -160 0 -160 0 0 80 c0 65 3 80 15 80 9 0 27 11 40
25 33 32 33 78 0 110 l-24 25 -351 0 -351 0 -24 -25 c-24 -23 -25 -29 -25
-160 l0 -135 -40 0 -40 0 0 400 0 400 1160 0 1160 0 0 -400z m960 320 l0 -80
-280 0 -280 0 0 80 0 80 280 0 280 0 0 -80z m1520 0 l0 -80 -520 0 -520 0 0
80 0 80 520 0 520 0 0 -80z m-3360 -480 l0 -240 -80 0 -80 0 0 240 0 240 80 0
80 0 0 -240z m640 0 l0 -240 -80 0 -80 0 0 240 0 240 80 0 80 0 0 -240z m1200
-160 l0 -80 -280 0 -280 0 0 80 0 80 280 0 280 0 0 -80z m-960 -560 l0 -320
-40 0 -40 0 0 135 c0 131 -1 137 -25 160 l-24 25 -271 0 -271 0 -24 -25 c-24
-23 -25 -29 -25 -160 l0 -135 -40 0 -40 0 0 215 c0 216 0 216 -25 240 l-24 25
-671 0 -671 0 -24 -25 c-25 -24 -25 -24 -25 -240 l0 -215 -40 0 -40 0 0 320 0
320 1160 0 1160 0 0 -320z m2480 -40 l0 -360 -40 0 -40 0 0 255 0 256 -25 24
-24 25 -669 0 c-643 0 -670 -1 -694 -19 l-24 -19 -104 64 c-58 35 -115 64
-127 64 -12 0 -33 -10 -46 -22 -23 -21 -259 -404 -306 -497 -25 -49 -20 -82
16 -111 l26 -20 -132 0 -131 0 0 360 0 360 1160 0 1160 0 0 -360z m-1651 54
c34 -20 61 -40 61 -44 0 -16 -193 -330 -203 -330 -10 0 -127 69 -127 75 0 10
199 335 205 335 2 0 31 -16 64 -36z m-2429 -174 l0 -160 -80 0 -80 0 0 160 0
160 80 0 80 0 0 -160z m640 0 l0 -160 -80 0 -80 0 0 160 0 160 80 0 80 0 0
-160z m2560 -40 l0 -200 -80 0 -80 0 0 200 0 200 80 0 80 0 0 -200z m320 0 l0
-200 -80 0 -80 0 0 200 0 200 80 0 80 0 0 -200z m-2160 -40 l0 -80 -160 0
-160 0 0 80 0 80 160 0 160 0 0 -80z m1200 -85 l0 -75 -45 0 c-25 0 -45 3 -45
6 0 8 81 144 86 144 2 0 4 -34 4 -75z m-960 -515 l0 -360 -132 0 c-95 1 -128
4 -115 11 25 15 49 67 41 91 -12 39 -295 503 -320 526 -14 12 -35 22 -47 22
-12 -1 -69 -29 -126 -65 l-105 -63 -24 19 c-24 18 -49 19 -694 19 l-669 0 -24
-25 -25 -24 0 -256 0 -255 -40 0 -40 0 0 360 0 360 1160 0 1160 0 0 -360z
m2480 -40 l0 -320 -40 0 -40 0 0 255 0 256 -25 24 -24 25 -511 0 -511 0 -24
-25 -25 -24 0 -256 0 -255 -160 0 -160 0 0 135 c0 131 -1 137 -25 160 l-24 25
-311 0 -311 0 -24 -25 c-16 -15 -25 -36 -25 -55 0 -19 9 -40 25 -55 l24 -25
256 0 255 0 0 -80 0 -80 -320 0 -320 0 0 320 0 320 1160 0 1160 0 0 -320z
m-4400 -120 l0 -200 -80 0 -80 0 0 200 0 200 80 0 80 0 0 -200z m320 0 l0
-200 -80 0 -80 0 0 200 0 200 80 0 80 0 0 -200z m640 0 l0 -200 -80 0 -80 0 0
200 0 200 80 0 80 0 0 -200z m2560 0 l0 -200 -80 0 -80 0 0 200 0 200 80 0 80
0 0 -200z m640 0 l0 -200 -80 0 -80 0 0 200 0 200 80 0 80 0 0 -200z m-2991
-119 c22 -38 41 -72 41 -75 0 -3 -20 -6 -45 -6 l-45 0 0 75 c0 41 2 75 4 75 2
0 22 -31 45 -69z m751 -801 l0 -560 -40 0 -40 0 0 255 0 256 -25 24 -24 25
-616 0 -615 0 0 175 c0 173 0 176 -25 200 l-24 25 -391 0 -391 0 -24 -25 -25
-24 0 -456 0 -455 -40 0 -40 0 0 560 0 560 1160 0 1160 0 0 -560z m2480 240
l0 -320 -40 0 -40 0 0 135 c0 131 -1 137 -25 160 l-24 25 -311 0 -311 0 -24
-25 c-24 -23 -25 -29 -25 -160 l0 -135 -160 0 -160 0 0 255 0 256 -25 24 -24
25 -511 0 -511 0 -24 -25 -25 -24 0 -256 0 -255 -40 0 -40 0 0 320 0 320 1160
0 1160 0 0 -320z m-1920 -120 l0 -200 -80 0 -80 0 0 200 0 200 80 0 80 0 0
-200z m320 0 l0 -200 -80 0 -80 0 0 200 0 200 80 0 80 0 0 -200z m1360 -120
l0 -80 -200 0 -200 0 0 80 0 80 200 0 200 0 0 -80z m-3760 -160 l0 -80 -280 0
-280 0 0 80 0 80 280 0 280 0 0 -80z m320 -200 l0 -200 -80 0 -80 0 0 200 0
200 80 0 80 0 0 -200z m640 0 l0 -200 -80 0 -80 0 0 200 0 200 80 0 80 0 0
-200z m3040 -560 l0 -680 -106 0 c-97 0 -106 1 -99 17 63 145 55 401 -14 449
-17 12 -16 17 21 91 62 127 98 307 98 494 0 106 -18 139 -78 139 -45 0 -133
-63 -258 -183 l-81 -77 -28 77 c-47 132 -112 252 -143 264 -52 20 -83 1 -124
-76 -31 -58 -73 -155 -101 -237 -5 -13 -20 -4 -74 49 -112 107 -219 183 -258
183 -68 0 -89 -48 -80 -185 13 -199 46 -347 106 -467 28 -56 28 -57 8 -63 -60
-19 -89 -232 -51 -370 10 -38 22 -78 27 -88 6 -15 0 -17 -59 -17 l-66 0 0 615
0 616 -25 24 -24 25 -391 0 -391 0 -24 -25 -25 -24 0 -616 0 -615 -40 0 -40 0
0 680 0 680 1160 0 1160 0 0 -680z m-4000 440 l0 -80 -280 0 -280 0 0 80 0 80
280 0 280 0 0 -80z m2480 -80 l0 -80 -280 0 -280 0 0 80 0 80 280 0 280 0 0
-80z m-960 -600 l0 -440 -280 0 -280 0 0 160 c0 138 2 160 15 160 9 0 27 11
40 25 25 24 25 26 25 215 0 189 0 191 -25 215 l-24 25 -631 0 -631 0 -24 -25
c-25 -24 -25 -26 -25 -215 0 -189 0 -191 25 -215 13 -14 31 -25 40 -25 13 0
15 -22 15 -160 l0 -160 -280 0 -280 0 0 440 0 440 1160 0 1160 0 0 -440z m960
280 l0 -80 -280 0 -280 0 0 80 0 80 280 0 280 0 0 -80z m-1600 -160 l0 -80
-520 0 -520 0 0 80 0 80 520 0 520 0 0 -80z m-80 -400 l0 -160 -440 0 -440 0
0 160 0 160 440 0 440 0 0 -160z m2876 134 c14 -55 -17 -198 -56 -261 l-20
-33 -323 0 -324 0 -26 58 c-14 31 -30 77 -36 102 -12 51 -14 143 -4 153 3 4
181 7 394 7 l389 0 6 -26z m-1196 -214 l0 -80 -280 0 -280 0 0 80 0 80 280 0
280 0 0 -80z"/>
</g>
</svg>
